<svg xmlns="http://www.w3.org/2000/svg" width="500" height="500" viewBox="0 0 500 500" version="1.1"><path d="M 256.286 198.500 C 256.294 201.250, 256.488 202.256, 256.718 200.736 C 256.947 199.216, 256.941 196.966, 256.704 195.736 C 256.467 194.506, 256.279 195.750, 256.286 198.500 M 245.499 206.998 C 246.949 209.859, 248.361 211.973, 248.637 211.696 C 249.284 211.049, 245.369 203.346, 243.946 202.467 C 243.351 202.099, 244.050 204.138, 245.499 206.998 M 264.764 209.811 C 262.160 211.290, 260.022 212.847, 260.014 213.270 C 259.998 214.139, 266.447 210.971, 269.500 208.610 C 272.648 206.176, 269.967 206.856, 264.764 209.811" stroke="none" fill="#849c90" fill-rule="evenodd"/><path d="M 246.500 102.062 C 226.719 104.017, 211.315 111.501, 197.989 125.630 C 194.218 129.629, 189.875 135.650, 187.620 140.006 C 185.485 144.128, 182.480 148.850, 180.941 150.500 C 171.665 160.444, 162.442 180.870, 159.916 197.063 C 158.353 207.081, 159.305 224.501, 161.963 234.500 C 170.312 265.915, 196.136 291.589, 228 300.153 C 239.479 303.238, 260.790 303.447, 272 300.585 C 304.108 292.389, 328.171 269.617, 338.133 238 C 340.230 231.345, 340.496 228.585, 340.498 213.500 C 340.500 198.523, 340.225 195.625, 338.189 189.144 C 336.918 185.099, 335.727 181.949, 335.542 182.144 C 335.357 182.340, 336.112 185.875, 337.219 190 C 340.035 200.492, 340.206 219.649, 337.576 230 C 327.689 268.914, 296.576 294.822, 257.448 296.724 C 233.791 297.874, 212.437 289.959, 195.313 273.693 C 169.340 249.020, 161.882 211.353, 176.598 179.160 C 180.454 170.724, 187.371 160.635, 192.195 156.409 C 198.205 151.143, 231.553 135.130, 244 131.533 C 245.375 131.135, 239.525 134.340, 231 138.655 C 217.029 145.726, 197.263 157.954, 189.582 164.278 C 182.951 169.737, 188.790 171.500, 213.500 171.500 C 231.514 171.500, 237.378 170.365, 249.875 164.463 C 258.947 160.178, 267.397 154.335, 280.747 143.113 C 293.428 132.453, 301.585 127.436, 308.597 125.980 C 311.569 125.363, 314 124.478, 314 124.014 C 314 123.550, 311.863 121.614, 309.250 119.711 C 290.983 106.408, 267.985 99.940, 246.500 102.062 M 302.655 144.829 C 300.561 147.142, 300.516 152.373, 302.571 154.429 C 303.436 155.293, 305.660 156, 307.515 156 C 313.343 156, 316.140 149.140, 312 145 C 309.501 142.501, 304.839 142.416, 302.655 144.829 M 321.250 160.662 C 320.563 160.940, 320 162.696, 320 164.564 C 320 167.359, 320.446 168.074, 322.513 168.593 C 325.617 169.372, 328 167.557, 328 164.413 C 328 161.256, 324.542 159.334, 321.250 160.662 M 255.993 179.250 C 255.989 179.387, 254.864 182.806, 253.493 186.846 C 250.479 195.726, 250.396 198.497, 253.012 202.788 C 254.881 205.853, 254.920 206.428, 253.599 211.288 C 252.440 215.550, 252.161 215.953, 252.069 213.500 C 251.921 209.562, 248.862 202.942, 244.350 196.795 C 240.106 191.014, 239.039 191.632, 239.015 199.882 C 238.997 206.365, 241.596 211.176, 246.132 213.055 C 249.836 214.589, 252.010 219.076, 252.890 227 C 253.757 234.812, 255.333 232.885, 255.083 224.319 C 254.842 216.076, 255.755 215, 262.984 215 C 268.316 215, 272.290 212.885, 274.903 208.656 C 277.813 203.949, 277.560 203, 273.401 203 C 268.247 203, 263.516 205.578, 259.021 210.838 L 255.107 215.416 256.189 210.958 C 256.795 208.464, 258.643 205.044, 260.386 203.194 C 264.529 198.795, 264.460 193.784, 260.137 185.250 C 257.500 180.044, 256.030 177.916, 255.993 179.250 M 256.286 198.500 C 256.294 201.250, 256.488 202.256, 256.718 200.736 C 256.947 199.216, 256.941 196.966, 256.704 195.736 C 256.467 194.506, 256.279 195.750, 256.286 198.500 M 205.604 201.560 C 204.805 209.355, 205.626 215.028, 207.803 216.750 C 208.750 217.500, 208.905 218, 208.191 218 C 205.724 218, 207.138 222.233, 210.750 225.661 C 214.444 229.167, 214.450 229.185, 211.152 226.860 C 206.869 223.840, 203.722 218.362, 201.055 209.284 C 198.421 200.318, 194.588 197.078, 190.026 199.963 C 188.773 200.755, 188.874 201.239, 190.700 203.197 C 191.930 204.516, 193.763 209.102, 194.991 213.929 C 198.846 229.092, 202.164 233.392, 218.396 244.262 C 232.849 253.941, 240.190 260.629, 244.265 267.831 C 247.875 274.210, 248.154 273.940, 251.108 261.213 C 254.851 245.087, 252.587 233.682, 244.550 228.174 C 242.316 226.644, 238.259 225.440, 232.329 224.549 C 224.348 223.350, 216 220.844, 216 219.647 C 216 219.397, 218.255 220.049, 221.011 221.096 C 223.767 222.143, 226.743 223, 227.626 223 C 229.094 223, 229.092 222.790, 227.609 220.526 C 226.718 219.166, 225.339 215.560, 224.546 212.514 C 222.825 205.906, 222.329 205, 220.441 205 C 218.623 205, 218.602 208.028, 220.372 214.854 C 221.127 217.764, 221.413 219.774, 221.009 219.322 C 219.773 217.941, 218 211.860, 218 209 C 218 204.312, 215.996 200, 213.817 200 C 211.944 200, 211.870 200.446, 212.537 207.750 C 212.926 212.012, 213.620 216.221, 214.079 217.103 C 214.772 218.435, 214.455 218.612, 212.207 218.153 C 210.466 217.797, 210.094 217.472, 211.164 217.243 C 212.536 216.949, 212.668 216.328, 211.914 213.700 C 211.411 211.947, 211 207.730, 211 204.328 C 211 200.038, 210.518 197.661, 209.429 196.571 C 206.845 193.988, 206.308 194.688, 205.604 201.560 M 299.051 196.439 C 297.517 198.287, 295.848 216.352, 297.166 216.848 C 298.124 217.210, 286.551 223, 284.871 223 C 284.348 223, 284.499 222.381, 285.205 221.625 C 285.912 220.869, 286.942 220.420, 287.495 220.627 C 288.048 220.834, 289.897 220.150, 291.604 219.105 C 295.055 216.995, 296 214.043, 296 205.375 C 296 201.321, 295.640 200, 294.535 200 C 292.495 200, 291.362 202.583, 290.584 209.009 C 290.217 212.038, 289.469 215.188, 288.921 216.009 C 287.969 217.436, 288.245 213.743, 289.577 207.250 C 289.880 205.770, 289.560 205, 288.641 205 C 286.583 205, 285.222 207.058, 284.163 211.769 C 283.645 214.073, 282.303 217.516, 281.180 219.419 L 279.139 222.879 281.319 223.231 C 282.519 223.424, 280.350 223.949, 276.500 224.396 C 261.315 226.162, 255.616 232.613, 255.648 248 C 255.665 256.052, 259.199 273.004, 260.860 272.998 C 261.212 272.996, 262.798 270.511, 264.384 267.475 C 268.027 260.503, 274.618 254.476, 289.102 244.871 C 305.469 234.017, 309.815 228.347, 313.854 212.579 C 314.945 208.321, 316.644 203.946, 317.629 202.858 C 319.168 201.157, 319.214 200.748, 317.960 199.954 C 313.752 197.292, 308.964 201.756, 306.978 210.192 C 305.352 217.099, 302.878 221.900, 299.347 225 L 296.500 227.500 298.876 224.801 C 300.497 222.960, 301.100 221.302, 300.772 219.586 C 300.507 218.202, 300.788 216.905, 301.395 216.703 C 302.107 216.467, 302.500 212.657, 302.500 206.007 C 302.500 195.591, 301.669 193.285, 299.051 196.439 M 245.499 206.998 C 246.949 209.859, 248.361 211.973, 248.637 211.696 C 249.284 211.049, 245.369 203.346, 243.946 202.467 C 243.351 202.099, 244.050 204.138, 245.499 206.998 M 264.764 209.811 C 262.160 211.290, 260.022 212.847, 260.014 213.270 C 259.998 214.139, 266.447 210.971, 269.500 208.610 C 272.648 206.176, 269.967 206.856, 264.764 209.811 M 105.667 350.667 C 105.300 351.033, 105 360.033, 105 370.667 L 105 390 115.923 390 C 126.209 390, 127.026 389.849, 129.916 387.417 C 135.080 383.072, 135.667 375.223, 131.166 370.722 C 129.381 368.936, 129.379 368.739, 131.099 365.185 C 132.161 362.991, 132.659 360.397, 132.330 358.774 C 131.592 355.140, 127.695 351.389, 123.861 350.622 C 119.715 349.793, 106.508 349.825, 105.667 350.667 M 141 370 L 141 390 154.500 390 L 168 390 168 386.500 L 168 383 158.500 383 L 149 383 149 378.500 L 149 374 158 374 L 167 374 167 370.500 L 167 367 158 367 L 149 367 149 362 L 149 357 158.500 357 L 168 357 168 353.500 L 168 350 154.500 350 L 141 350 141 370 M 171 353.500 L 171 357 177.500 357 L 184 357 184 373.500 L 184 390 188 390 L 192 390 192 373.500 L 192 357 198 357 L 204 357 204 353.500 L 204 350 187.500 350 L 171 350 171 353.500 M 205 353.500 L 205 357 211 357 L 217 357 217 373.500 L 217 390 221 390 L 225 390 225 373.500 L 225 357 231 357 L 237 357 237 353.500 L 237 350 221 350 L 205 350 205 353.500 M 242 370 L 242 390 255.500 390 L 269 390 269 386.500 L 269 383 259.500 383 L 250 383 250 378.500 L 250 374 259 374 L 268 374 268 370.500 L 268 367 259 367 L 250 367 250 362 L 250 357 259.500 357 L 269 357 269 353.500 L 269 350 255.500 350 L 242 350 242 370 M 277 370 L 277 390 281 390 L 285 390 285 381.500 C 285 373.804, 285.180 373, 286.908 373 C 288.261 373, 290.203 375.471, 293.587 381.500 L 298.358 390 302.679 390 C 305.056 390, 307 389.790, 307 389.533 C 307 389.276, 304.740 385.506, 301.978 381.155 L 296.955 373.245 300.478 369.722 C 303.323 366.877, 304 365.438, 304 362.235 C 304 354.006, 297.789 350, 285.032 350 L 277 350 277 370 M 329 356.607 C 329 362.522, 328.817 363.134, 327.250 362.455 C 320.421 359.491, 313.883 361.842, 310.943 368.316 C 304.884 381.662, 315.412 395.492, 327.050 389.474 C 328.741 388.600, 330 388.386, 330 388.974 C 330 389.538, 331.575 390, 333.500 390 L 337 390 337 370 L 337 350 333 350 L 329 350 329 356.607 M 113 361.500 L 113 366 117.800 366 C 123.091 366, 125 364.763, 125 361.335 C 125 358.483, 122.285 357, 117.066 357 L 113 357 113 361.500 M 285 361.870 L 285 367 288.566 367 C 293.289 367, 296.003 365.432, 295.985 362.715 C 295.959 359.068, 294.491 357.810, 289.624 357.261 L 285 356.740 285 361.870 M 347.872 363.006 C 343.103 365.525, 342.474 367.441, 345.605 369.904 C 348.093 371.861, 348.139 371.861, 350.059 369.941 C 352.610 367.390, 357.601 367.387, 358.965 369.934 C 360.548 372.893, 360.390 373, 354.450 373 C 348.547 373, 343.642 374.884, 342.621 377.545 C 341.346 380.868, 342.070 384.970, 344.413 387.694 C 346.457 390.070, 347.590 390.500, 351.808 390.500 C 355.304 390.500, 357.418 389.932, 358.895 388.595 C 360.753 386.914, 361 386.884, 361 388.345 C 361 389.517, 361.875 390, 364 390 L 367 390 367 379.223 C 367 367.096, 366.088 364.770, 360.401 362.394 C 355.920 360.522, 352.232 360.702, 347.872 363.006 M 370 362.499 C 370 362.837, 372.250 368.644, 375 375.404 C 377.750 382.164, 380 388.401, 380 389.265 C 380 390.128, 379.100 392.934, 378 395.500 C 376.900 398.066, 376 400.579, 376 401.083 C 376 401.587, 377.751 402, 379.891 402 L 383.781 402 391.803 382 L 399.825 362 395.550 362 L 391.274 362 387.980 371.209 L 384.686 380.417 381.464 371.459 L 378.242 362.500 374.121 362.193 C 371.854 362.023, 370 362.161, 370 362.499 M 319 370 C 314.588 374.412, 317.564 384, 323.345 384 C 326.826 384, 329.273 380.698, 329.273 376 C 329.273 368.918, 323.471 365.529, 319 370 M 113 378.050 L 113 383.100 118.717 382.800 C 123.727 382.537, 124.619 382.169, 125.934 379.818 C 127.303 377.370, 127.271 376.957, 125.562 375.068 C 124.114 373.469, 122.479 373, 118.345 373 L 113 373 113 378.050 M 350.278 380.122 C 348.609 381.791, 349.889 384, 352.525 384 C 355.872 384, 357.916 383.025, 359.063 380.882 C 359.977 379.174, 359.670 379, 355.735 379 C 353.351 379, 350.895 379.505, 350.278 380.122" stroke="none" fill="#043c24" fill-rule="evenodd"/></svg>